<svg xmlns="http://www.w3.org/2000/svg" version="1.2" viewBox="0 -2.9558577807620168e-12 1920 1920.000000000003" width="1920" height="1921">
	<style>
		tspan { white-space:pre } 
		.s0 { fill: #ffc000 } 
	</style>
	<g id="Layer 4">
		<g id="&lt;Group&gt;">
			<g id="&lt;Group&gt;">
				<path id="&lt;Compound Path&gt;" class="s0" d="m1293.39 1171.34h-48.72c-2 0-3.79-1.21-4.54-3.07l-7.69-19.23c-0.74-1.85-2.54-3.07-4.54-3.07h-55.77c-2 0-3.8 1.22-4.54 3.07l-7.69 19.23c-0.74 1.86-2.54 3.07-4.54 3.07h-48.72c-3.45 0-5.81-3.48-4.54-6.68l69.01-174.31c0.74-1.87 2.54-3.09 4.55-3.09h48.71c2.01 0 3.81 1.22 4.55 3.09l69.01 174.31c1.27 3.2-1.09 6.68-4.54 6.68zm-42.1-9.77h27.71c3.45 0 5.82-3.48 4.55-6.69l-61.28-154.76c-0.73-1.86-2.53-3.09-4.54-3.09h-35.43c-2 0-3.8 1.23-4.54 3.09l-61.28 154.76c-1.27 3.21 1.1 6.69 4.55 6.69h27.71c2 0 3.8-1.22 4.54-3.07l7.69-19.23c0.75-1.86 2.54-3.08 4.54-3.08h69.01c2 0 3.8 1.22 4.54 3.08l7.69 19.23c0.74 1.85 2.54 3.07 4.54 3.07zm-30.22-49.6h-42.12c-3.44 0-5.8-3.47-4.54-6.68l21.06-53.53c1.62-4.13 7.47-4.13 9.09 0l21.06 53.53c1.26 3.21-1.1 6.68-4.55 6.68zm-27.77-9.77h13.43c3.44 0 5.8-3.47 4.54-6.68l-6.71-17.06c-1.62-4.13-7.47-4.13-9.09 0l-6.71 17.06c-1.27 3.21 1.1 6.68 4.54 6.68z" fill="#ffc000"/>
				<path id="&lt;Compound Path&gt;" class="s0" d="m1437.99 1171.34h-127.11c-2.7 0-4.89-2.19-4.89-4.88v-174.31c0-2.7 2.19-4.89 4.89-4.89h43.13c2.7 0 4.88 2.19 4.88 4.89v125.71c0 2.7 2.19 4.89 4.89 4.89h74.21c2.7 0 4.89 2.18 4.89 4.88v38.83c0 2.69-2.19 4.88-4.89 4.88zm-117.34-9.77h107.56c2.7 0 4.89-2.19 4.89-4.89v-19.27c0-2.7-2.19-4.89-4.89-4.89h-74.2c-2.7 0-4.89-2.19-4.89-4.89v-125.71c0-2.7-2.19-4.89-4.89-4.89h-23.58c-2.7 0-4.89 2.19-4.89 4.89v154.76c0 2.7 2.19 4.89 4.89 4.89z" fill="#ffc000"/>
				<path id="&lt;Compound Path&gt;" class="s0" d="m1532.72 1174.39c-32.09 0-61.73-10.81-83.45-30.44-1.95-1.76-2.16-4.75-0.48-6.76l24.36-29.18c1.72-2.06 4.78-2.35 6.85-0.64 16.95 13.91 35.19 20.96 54.24 20.96 4.63 0 19.72-0.8 19.72-11.1 0-5.98-3.89-7.82-29.74-14.02-36.17-8.12-68.7-18.7-68.7-58.29 0-36.31 28.78-60.71 71.62-60.71 29.45 0 53.54 8.18 73.67 24.99 1.96 1.64 2.33 4.51 0.84 6.59l-22.07 30.95c-1.61 2.25-4.75 2.73-6.94 1.05-14.83-11.3-31.44-17.52-46.77-17.52-10.29 0-16.93 4.06-16.93 10.34 0 6.34 4.39 9.4 30.39 15.01 34.43 7.38 68.05 17.86 68.05 57.05 0 18.71-7.09 34.38-20.51 45.33-13.14 10.72-31.87 16.39-54.15 16.39zm-70.1-38.51c-1.79 2.14-1.44 5.37 0.8 7.03 19.01 14.06 43.25 21.7 69.3 21.7 40.63 0 64.89-19.42 64.89-51.94 0-28.91-22.12-39.3-60.33-47.49-23.64-5.1-38.12-9.01-38.12-24.57 0-10.01 8.26-20.11 26.71-20.11 14.7 0 30.3 4.92 44.72 13.99 2.21 1.39 5.11 0.85 6.63-1.27l10.96-15.38c1.6-2.24 1.02-5.35-1.26-6.9-16.72-11.39-36.37-16.95-59.78-16.95-36.99 0-61.84 20.47-61.84 50.93 0 29.62 20.59 39.67 61.13 48.77 24.86 5.97 37.31 8.95 37.31 23.54 0 10.09-7.75 20.87-29.5 20.87-18.57 0-36.36-5.89-53-17.53-2.08-1.45-4.93-1.09-6.56 0.86z" fill="#ffc000"/>
			</g>
			<path id="&lt;Path&gt;" class="s0" d="m477.02 745.81h-153.76c-5.88 0-10.64 4.77-10.64 10.64v26.38c0 5.88 4.76 10.64 10.64 10.64h41.73c4.81 0 8.71 3.9 8.71 8.71v134.21c0 5.88 4.77 10.64 10.64 10.64h31.6c5.87 0 10.64-4.76 10.64-10.64v-134.21c0-4.81 3.9-8.71 8.71-8.71h41.73c5.88 0 10.64-4.76 10.64-10.64v-26.38c0-5.87-4.76-10.64-10.64-10.64z" fill="#ffc000"/>
			<path id="&lt;Compound Path&gt;" class="s0" d="m671.57 987.26h-40.48-8.23c-2.01 0-3.81 1.22-4.55 3.09l-35.56 89.93c-1.63 4.11-7.46 4.11-9.09 0l-13.01-32.9-22.56-57.03c-0.74-1.87-2.54-3.09-4.54-3.09h-48.72c-1.81 0-3.32 0.97-4.16 2.34v5.3l28.05 70.86 23.79 60.09 16.79 42.4c0.74 1.87 2.54 3.09 4.54 3.09h48.72c2 0 3.8-1.22 4.54-3.09l69.01-174.3c1.27-3.21-1.09-6.69-4.54-6.69zm-9.84 16.46l-61.27 154.76c-0.74 1.86-2.54 3.09-4.54 3.09h-35.43c-2.01 0-3.81-1.23-4.55-3.09l-13.33-33.67-22.34-56.43-25.6-64.66c-1.27-3.21 1.09-6.69 4.54-6.69h27.69c2.01 0 3.81 1.23 4.54 3.09l22.3 56.38 19.92 50.35c1.63 4.12 7.46 4.12 9.09 0l42.21-106.73c0.73-1.86 2.54-3.09 4.54-3.09h1.59 26.1c3.45 0 5.81 3.48 4.54 6.69z" fill="#ffc000"/>
			<path id="&lt;Compound Path&gt;" class="s0" d="m733.72 987.26h-43.39c-2.7 0-4.89 2.19-4.89 4.89v129.49 44.82c0 2.69 2.19 4.88 4.89 4.88h43.39c2.7 0 4.89-2.19 4.89-4.88v-44.28-130.03c0-2.7-2.19-4.89-4.89-4.89zm-4.89 169.42c0 2.7-2.19 4.89-4.89 4.89h-23.84c-2.7 0-4.88-2.19-4.88-4.89v-34.5-120.26c0-2.7 2.18-4.89 4.88-4.89h23.84c2.7 0 4.89 2.19 4.89 4.89v120.26z" fill="#ffc000"/>
			<path id="&lt;Compound Path&gt;" class="s0" d="m841.3 1055.62q-1.89-0.41-3.63-0.8c-22.77-5.11-26.76-8.17-26.76-14.21 0-6.28 6.64-10.34 16.93-10.34q0.44 0.01 0.89 0.02c15.08 0.24 31.33 6.42 45.87 17.5 2.2 1.68 5.34 1.2 6.95-1.05l13.83-19.4 8.24-11.55c1.48-2.08 1.11-4.95-0.84-6.59h-0.01q-5.44-4.54-11.28-8.25c-17.71-11.24-38.24-16.74-62.38-16.74q-0.52 0.01-1.04 0.02c-42.26 0.4-70.58 24.68-70.58 60.69 0 8.02 1.35 14.83 3.78 20.69 9.57 23.07 36.08 31.12 64.92 37.6 10.09 2.42 16.83 4.18 21.3 5.77 6.99 2.5 8.45 4.6 8.45 8.25 0 10.3-15.1 11.1-19.73 11.1-10.27 0-20.31-2.07-30.05-6.15q-12.47-5.21-24.19-14.81c-2.07-1.71-5.13-1.42-6.85 0.64l-11.83 14.17-12.53 15.01c-1.68 2.01-1.47 5 0.47 6.76h0.01c21.72 19.63 51.36 30.44 83.45 30.44 22.28 0 41.01-5.67 54.15-16.39 12.64-10.31 19.66-24.82 20.43-42.1q0.08-1.6 0.08-3.23c0-39.19-33.62-49.67-68.05-57.05zm58.27 57.05c0 32.52-24.25 51.94-64.88 51.94-26.05 0-50.29-7.64-69.3-21.7-2.24-1.66-2.59-4.89-0.8-7.03l11.43-13.7 0.63-0.75c1.63-1.95 4.48-2.31 6.56-0.86q1.19 0.83 2.39 1.61c15.95 10.57 32.93 15.92 50.61 15.92 21.75 0 29.5-10.78 29.5-20.87 0-10.19-6.08-14.72-18.22-18.56-5.24-1.66-11.59-3.18-19.09-4.98-29.19-6.56-48.04-13.6-56.3-28.08-3.22-5.63-4.83-12.39-4.83-20.69 0-29.74 23.69-49.95 59.24-50.89q1.29-0.04 2.6-0.04c23.41 0 43.06 5.56 59.78 16.95 2.28 1.55 2.86 4.66 1.26 6.9l-10.96 15.38c-1.52 2.12-4.42 2.66-6.63 1.27-14.43-9.07-30.02-13.99-44.72-13.99q-0.48 0-0.94 0.01c-17.79 0.34-25.77 10.26-25.77 20.1 0 15.56 14.48 19.47 38.12 24.57q2.57 0.55 5.05 1.12c34.9 8 55.05 18.66 55.26 45.93q0.01 0.22 0.01 0.44z" fill="#ffc000"/>
			<path id="&lt;Compound Path&gt;" class="s0" d="m1089.67 987.26h-20.83-22.31c-2.7 0-4.89 2.19-4.89 4.89v87.76 8.14c0 21.93-13.53 37.23-32.92 37.23-8.98 0-16.7-3.34-22.38-9.14-6.46-6.61-10.28-16.41-10.28-28.09v-31.27-64.63c0-2.7-2.18-4.89-4.88-4.89h-43.39c-2.7 0-4.89 2.19-4.89 4.89v66.11 31.82c0 10.74 1.75 21 5.07 30.43 4.07 11.56 10.5 21.88 19.07 30.28 15.53 15.22 37.44 23.6 61.68 23.6 24.35 0 46.29-8.39 61.79-23.6 15.5-15.23 24.04-36.79 24.04-60.71v-97.93c0-2.7-2.19-4.89-4.88-4.89zm-4.89 102.82c0 43.88-31.28 74.53-76.06 74.53-32.91 0-58.51-16.57-69.77-42.77-4.06-9.45-6.27-20.13-6.27-31.76v-27.78-60.38c0-2.7 2.18-4.89 4.88-4.89h23.84c2.7 0 4.89 2.19 4.89 4.89v59.5 26.63c0 12.18 3.57 22.86 9.72 30.95 7.59 10.01 19.12 16.06 32.71 16.06 24.74 0 42.7-19.77 42.7-47.01v-20.82-65.31c0-2.7 2.19-4.89 4.89-4.89h13.8 9.78c2.7 0 4.89 2.19 4.89 4.89z" fill="#ffc000"/>
			<path id="&lt;Compound Path&gt;" class="s0" d="m1007.95 745.61c-58.27 0-102.37 45.23-102.37 100.81 0 55.59 44.1 100.81 102.37 100.81 58.27 0 103.48-45.22 103.48-100.81 0-55.58-45.21-100.81-103.48-100.81zm0 155.56c-30.19 0-54.75-24.56-54.75-54.75 0-30.18 24.56-54.74 54.75-54.74 30.19 0 54.75 24.56 54.75 54.74 0 30.19-24.56 54.75-54.75 54.75z" fill="#ffc000"/>
			<path id="&lt;Path&gt;" class="s0" d="m896.78 941.39v-33.63c0-4.02-3.27-7.28-7.29-7.28h-80.06c-6.15 0-11.14-4.99-11.14-11.15v-132.9c0-5.86-4.76-10.62-10.62-10.62h-29.44c-5.87 0-10.62 4.76-10.62 10.62v184.85c0 1.2 0.35 2.38 1.04 3.35q0.05 0.07 0.1 0.14c0.11 0.15 0.18 0.23 0.25 0.31l0.56 0.56q0.13 0.11 0.25 0.21c0.17 0.13 0.28 0.2 0.38 0.27 0.93 0.6 1.98 0.91 3.07 0.91h137.85c3.13 0 5.67-2.53 5.67-5.64z" fill="#ffc000"/>
			<path id="&lt;Path&gt;" class="s0" d="m704.13 748.81h-33.1c-5.15 0-9.34 4.18-9.34 9.34v96.24q0 1.37-0.06 2.72l-0.01 0.19c0 0.64 0.03 5.26-0.43 8.14-3.27 20.69-21.63 36.64-42.51 37.11q-0.43 0.01-0.86 0.02-0.43-0.01-0.85-0.02c-20.88-0.47-39.24-16.42-42.51-37.11-0.46-2.88-0.43-3.06-0.43-8.14l-0.01-0.19q-0.06-1.35-0.07-2.72v-96.24c0-5.16-4.18-9.34-9.34-9.34h-33.09c-5.16 0-9.34 4.18-9.34 9.34v99.25q0 4.87 0.41 9.57c4.08 46.92 38.3 79.75 87.72 82.83q1.67 0.1 3.36 0.16l0.47 0.01 0.2 0.01q0 0 0 0h0.03q0.8 0.02 1.59 0.02 0.93 0.03 1.86 0.03 0.93 0 1.86-0.03 0.8 0 1.59-0.02h0.03q0.01 0 0.01 0l0.2-0.01 0.47-0.01q1.69-0.06 3.36-0.16c49.42-3.08 83.63-35.91 87.72-82.83q0.41-4.7 0.41-9.57v-99.25c0-5.16-4.18-9.34-9.34-9.34z" fill="#ffc000"/>
		</g>
	</g>
</svg>